<?xml version="1.0" encoding="UTF-8" standalone="no"?>
<!DOCTYPE svg PUBLIC "-//W3C//DTD SVG 1.1//EN"
 "http://www.w3.org/Graphics/SVG/1.1/DTD/svg11.dtd">
<!-- Generated by graphviz version 2.40.1 (20161225.0304)
 -->
<!-- Title: decision tree Pages: 1 -->
<svg width="295pt" height="218pt"
 viewBox="0.00 0.00 295.00 218.00" xmlns="http://www.w3.org/2000/svg" xmlns:xlink="http://www.w3.org/1999/xlink">
<g id="graph0" class="graph" transform="scale(1 1) rotate(0) translate(4 214)">
<title>decision tree</title>
<polygon fill="#ffffff" stroke="transparent" points="-4,4 -4,-214 291,-214 291,4 -4,4"/>
<!-- Feature_1 &gt; 0 -->
<g id="node1" class="node">
<title>Feature_1 &gt; 0</title>
<ellipse fill="#c0c0c0" stroke="#000000" cx="134" cy="-192" rx="60.3893" ry="18"/>
<text text-anchor="middle" x="134" y="-188.3" font-family="Times,serif" font-size="14.00" fill="#000000">Feature_1 &gt; 0</text>
</g>
<!-- Feature_2 &gt; &#45;1 -->
<g id="node2" class="node">
<title>Feature_2 &gt; &#45;1</title>
<ellipse fill="#c0c0c0" stroke="#000000" cx="64" cy="-105" rx="63.8893" ry="18"/>
<text text-anchor="middle" x="64" y="-101.3" font-family="Times,serif" font-size="14.00" fill="#000000">Feature_2 &gt; &#45;1</text>
</g>
<!-- Feature_1 &gt; 0&#45;&gt;Feature_2 &gt; &#45;1 -->
<g id="edge1" class="edge">
<title>Feature_1 &gt; 0&#45;&gt;Feature_2 &gt; &#45;1</title>
<path fill="none" stroke="#000000" d="M119.8345,-174.3943C109.6823,-161.7765 95.853,-144.5887 84.4978,-130.4759"/>
<polygon fill="#000000" stroke="#000000" points="87.1402,-128.1767 78.1445,-122.5796 81.6864,-132.5649 87.1402,-128.1767"/>
<text text-anchor="middle" x="113" y="-144.8" font-family="Times,serif" font-size="14.00" fill="#000000"> no</text>
</g>
<!-- Feature_2 &gt; 1 -->
<g id="node3" class="node">
<title>Feature_2 &gt; 1</title>
<ellipse fill="#c0c0c0" stroke="#000000" cx="206" cy="-105" rx="60.3893" ry="18"/>
<text text-anchor="middle" x="206" y="-101.3" font-family="Times,serif" font-size="14.00" fill="#000000">Feature_2 &gt; 1</text>
</g>
<!-- Feature_1 &gt; 0&#45;&gt;Feature_2 &gt; 1 -->
<g id="edge2" class="edge">
<title>Feature_1 &gt; 0&#45;&gt;Feature_2 &gt; 1</title>
<path fill="none" stroke="#000000" d="M148.5703,-174.3943C159.0125,-161.7765 173.2369,-144.5887 184.9165,-130.4759"/>
<polygon fill="#000000" stroke="#000000" points="187.7721,-132.515 191.4514,-122.5796 182.3793,-128.052 187.7721,-132.515"/>
<text text-anchor="middle" x="185" y="-144.8" font-family="Times,serif" font-size="14.00" fill="#000000"> yes</text>
</g>
<!--  &#160; -->
<g id="node6" class="node">
<title> &#160;</title>
<ellipse fill="#fdc086" stroke="#000000" cx="27" cy="-18" rx="27" ry="18"/>
<text text-anchor="middle" x="27" y="-14.3" font-family="Times,serif" font-size="14.00" fill="#000000"> &#160;</text>
</g>
<!-- Feature_2 &gt; &#45;1&#45;&gt; &#160; -->
<g id="edge5" class="edge">
<title>Feature_2 &gt; &#45;1&#45;&gt; &#160;</title>
<path fill="none" stroke="#000000" d="M56.3336,-86.9735C51.1556,-74.7983 44.2293,-58.5122 38.4074,-44.8228"/>
<polygon fill="#000000" stroke="#000000" points="41.5387,-43.2423 34.4041,-35.4097 35.097,-45.9819 41.5387,-43.2423"/>
<text text-anchor="middle" x="57" y="-57.8" font-family="Times,serif" font-size="14.00" fill="#000000"> no</text>
</g>
<!--  &#160;&#160; -->
<g id="node7" class="node">
<title> &#160;&#160;</title>
<ellipse fill="#b2dfee" stroke="#000000" cx="99" cy="-18" rx="27" ry="18"/>
<text text-anchor="middle" x="99" y="-14.3" font-family="Times,serif" font-size="14.00" fill="#000000"> &#160;&#160;</text>
</g>
<!-- Feature_2 &gt; &#45;1&#45;&gt; &#160;&#160; -->
<g id="edge6" class="edge">
<title>Feature_2 &gt; &#45;1&#45;&gt; &#160;&#160;</title>
<path fill="none" stroke="#000000" d="M71.252,-86.9735C76.1501,-74.7983 82.702,-58.5122 88.2092,-44.8228"/>
<polygon fill="#000000" stroke="#000000" points="91.5108,-45.9934 91.9961,-35.4097 85.0167,-43.3808 91.5108,-45.9934"/>
<text text-anchor="middle" x="95" y="-57.8" font-family="Times,serif" font-size="14.00" fill="#000000"> yes</text>
</g>
<g id="node4" class="node">
<title></title>
<ellipse fill="#b2dfee" stroke="#000000" cx="188" cy="-18" rx="27" ry="18"/>
</g>
<!-- Feature_2 &gt; 1&#45;&gt; -->
<g id="edge3" class="edge">
<title>Feature_2 &gt; 1&#45;&gt;</title>
<path fill="none" stroke="#000000" d="M202.2704,-86.9735C199.8328,-75.1918 196.5988,-59.5607 193.8258,-46.1581"/>
<polygon fill="#000000" stroke="#000000" points="197.1784,-45.0868 191.7248,-36.0034 190.3236,-46.5051 197.1784,-45.0868"/>
<text text-anchor="middle" x="207" y="-57.8" font-family="Times,serif" font-size="14.00" fill="#000000"> no</text>
</g>
<!--   -->
<g id="node5" class="node">
<title> </title>
<ellipse fill="#fdc086" stroke="#000000" cx="260" cy="-18" rx="27" ry="18"/>
<text text-anchor="middle" x="260" y="-14.3" font-family="Times,serif" font-size="14.00" fill="#000000"> </text>
</g>
<!-- Feature_2 &gt; 1&#45;&gt;  -->
<g id="edge4" class="edge">
<title>Feature_2 &gt; 1&#45;&gt; </title>
<path fill="none" stroke="#000000" d="M217.1888,-86.9735C224.994,-74.3985 235.521,-57.4384 244.1829,-43.4832"/>
<polygon fill="#000000" stroke="#000000" points="247.2583,-45.165 249.5583,-34.8228 241.3108,-41.4734 247.2583,-45.165"/>
<text text-anchor="middle" x="247" y="-57.8" font-family="Times,serif" font-size="14.00" fill="#000000"> yes</text>
</g>
</g>
</svg>
